# xmcd
#
# Track frame offsets:
#	150
#	25130
#	63295
#	81333
#	101765
#	140402
#	155147
#	212590
#	245435
#	288450
#	333980
#
# Disc length: 4713 seconds
#
# Revision: 1
# Processed by: cddbd v1.5.2PL0 Copyright (c) Steve Scherf et al.
# Submitted via: audiograbber 1.81.03
#
DISCID=9e12670b
DTITLE=Gregor Hilden Band - Greg´s Bluesnight - Live-
DYEAR=1900
DGENRE=Blues
TTITLE0=Gregor Hilden Band - Bad Bad Whiskey Feat. H-Bergmeyer
TTITLE1=Gregor Hilden Band - Big Boss Man Feat. Fast E-Wilkinson
TTITLE2=Gregor Hilden Band - Bonus Track Medley Feat. BoBo Davis
TTITLE3=Gregor Hilden Band - C. C. Rider Feat. Ron Williams
TTITLE4=Gregor Hilden Band - Cold Chill Feat. Larry Garner
TTITLE5=Gregor Hilden Band - Going Home Feat. Al Jones
TTITLE6=Gregor Hilden Band - I Gotta Move Out Of This...
TTITLE7=Gregor Hilden Band - I Hear You Knocking -Tom Principat
TTITLE8=Gregor Hilden Band - Inner City Blues Feat. Jim Kahr
TTITLE9=Gregor Hilden Band - My Secret Feat. Travis Haddix
TTITLE10=Gregor Hilden Band - Steal Away Feat. MZ Dee
EXTD=
EXTT0=
EXTT1=
EXTT2=
EXTT3=
EXTT4=
EXTT5=
EXTT6=
EXTT7=
EXTT8=
EXTT9=
EXTT10=
PLAYORDER=
